<svg height="20" width="240" xmlns="http://www.w3.org/2000/svg"><g transform="translate(-3200 -992.36218)"><path d="m3215.5 1001.3622-5.5-5.5-5.5 5.5h4.5v7h2v-7z"/><path d="m3289 996.36218c-1.7222 0-3.0854.60866-3.9062 1.59375-.821.98509-1.0938 2.23957-1.0938 3.40627v6h2v-6c0-.8333.2272-1.6101.6562-2.12502.4291-.51492 1.066-.875 2.3438-.875s1.9146.36008 2.3438.875c.429.51492.6562 1.29172.6562 2.12502v2h-4.5l5.5 5.5 5.5-5.5h-4.5v-2c0-1.1667-.2728-2.42118-1.0938-3.40627-.8209-.98509-2.184-1.59375-3.9062-1.59375z"/><path d="m3266.5 996.36218 3.0312 3.03125-3.5312 3.53127v5.4375h2v-4.5938l2.9375-2.9687 3.0625 3.0625v-7.50002z"/><path d="m3251 995.86218v4.50002h-5l-1 1v6h2v-5h4v4.5l5.5-5.5z"/><path d="m3226.4375 996.36218-1.4375 1v8.00002h2v-5.5938l4.5625 4.5313-3.0625 3.0625h7.5v-7.5l-3.0312 3.0312-6.5313-6.53122z"/><path d="m3346 996.36218v7.50002l3.0625-3.0625 2.9375 2.9687v4.5938h2v-5.4375l-3.5312-3.53127 3.0312-3.03125z"/><path d="m3329 995.86218v4.50002h5l1 1v6h-2v-5h-4v4.5l-5.5-5.5z"/><path d="m3313.5625 996.36218-6.5313 6.53122-3.0312-3.0312v7.5h7.5l-3.0625-3.0625 4.5625-4.5313v5.5938h2v-8.00002l-1.4375-1z"/><path d="m3390 995.39343c-1.5376 0-3.0827.55137-4.25 1.71875-2.3349 2.33472-2.3349 6.16522 0 8.50002l1.4375-1.4375c-1.5705-1.5704-1.5705-4.0546 0-5.62502 1.5705-1.57045 4.0546-1.57045 5.625 0 1.5705 1.57042 1.5705 4.05462 0 5.62502-.7503.7504-1.7513 1.1875-2.8125 1.1875h-1v4h2v-2.0625c1.2269-.2054 2.3619-.7994 3.25-1.6875 2.3348-2.3348 2.3348-6.1653 0-8.50002-1.1674-1.16738-2.7124-1.71875-4.25-1.71875z"/><g transform="translate(3360.5 -23.000003)"><path d="m0 1016.3622h18v18h-18z" fill="none"/><text font-family="Open Sans" font-size="16.741144" font-weight="bold" stroke-width="2" text-anchor="middle" x="9.495913" y="1031.3622"><tspan x="9.495913" y="1031.3622">A</tspan></text></g><g transform="translate(3401 -23.00002)"><path d="m0 1016.3622h18v18h-18z" fill="none"/><text font-family="Open Sans" font-size="16.809803" font-weight="bold" stroke-width="2" text-anchor="middle" x="9.136787" y="1031.3622"><tspan x="9.136787" y="1031.3622">B</tspan></text></g><path d="m3421 993.36218h18v18h-18z" fill="none"/><g font-family="Open Sans" font-weight="bold" stroke-width="2" text-anchor="middle"><text font-size="16.809803" x="3428.4482" y="1008.3622"><tspan x="3428.4482" y="1008.3622">V<tspan/></tspan></text><text font-size="6.15146" transform="scale(.95214897 1.0502558)" x="3608.1475" y="960.02386"><tspan x="3608.1475" y="960.02386">ia</tspan></text></g></g></svg>